<svg width="664" height="665" viewBox="0 0 664 665" fill="none" xmlns="http://www.w3.org/2000/svg">
<mask id="mask0_1_72" style="mask-type:alpha" maskUnits="userSpaceOnUse" x="-13" y="-20" width="647" height="685">
<path d="M634 -20H-12.7969V664.938H634V-20Z" fill="url(#paint0_linear_1_72)"/>
</mask>
<g mask="url(#mask0_1_72)">
<path d="M91.7569 582.297C91.7569 577.015 91.7569 574.375 92.8647 572.364C93.7983 570.67 95.2637 569.289 97.061 568.409C99.1938 567.365 101.996 567.365 107.6 567.365H162.016C167.621 567.365 170.422 567.365 172.556 568.409C174.353 569.289 175.818 570.67 176.752 572.364C177.86 574.375 177.86 577.015 177.86 582.297V633.583C177.86 638.865 177.86 641.506 176.752 643.515C175.818 645.209 174.353 646.59 172.556 647.47C170.422 648.514 167.621 648.514 162.016 648.514H107.6C101.996 648.514 99.1938 648.514 97.061 647.47C95.2637 646.59 93.7983 645.209 92.8647 643.515C91.7569 641.506 91.7569 638.865 91.7569 633.583V582.297Z" fill="white" fill-opacity="0.1"/>
<path d="M162.016 566.882H107.6H107.575C104.794 566.882 102.675 566.882 100.986 567.015C99.2864 567.148 97.9765 567.416 96.8248 567.981C94.9339 568.907 93.3922 570.359 92.4099 572.141C91.8116 573.227 91.5257 574.462 91.3845 576.064C91.2443 577.655 91.2443 579.653 91.2443 582.273V582.297V633.584V633.606C91.2443 636.228 91.2443 638.224 91.3845 639.816C91.5257 641.418 91.8116 642.652 92.4099 643.738C93.3922 645.52 94.9339 646.973 96.8248 647.898C97.9765 648.463 99.2864 648.732 100.986 648.866C102.675 648.998 104.794 648.998 107.575 648.998H107.6H162.016H162.042C164.823 648.998 166.941 648.998 168.63 648.866C170.331 648.732 171.64 648.463 172.792 647.898C174.683 646.973 176.225 645.52 177.206 643.738C177.805 642.652 178.091 641.418 178.233 639.816C178.373 638.224 178.373 636.228 178.373 633.606V633.584V582.297V582.273C178.373 579.653 178.373 577.655 178.233 576.064C178.091 574.462 177.805 573.227 177.206 572.141C176.225 570.359 174.683 568.907 172.792 567.981C171.64 567.416 170.331 567.148 168.63 567.015C166.941 566.882 164.823 566.882 162.042 566.882H162.016Z" stroke="white" stroke-opacity="0.2" stroke-width="0.937853"/>
<mask id="mask1_1_72" style="mask-type:luminance" maskUnits="userSpaceOnUse" x="105" y="579" width="60" height="57">
<path d="M164.534 579.925H105.082V635.956H164.534V579.925Z" fill="white"/>
</mask>
<g mask="url(#mask1_1_72)">
<path d="M108.797 579.925H160.817L156.086 630.267L134.75 635.956L113.534 630.265L108.797 579.925ZM151.132 590.227L118.483 590.22L119.011 596.342L144.092 596.346L143.46 602.687H127.011L127.606 608.695H142.92L142.013 616.919L134.805 618.797L127.482 616.905L127.017 611.979H120.552L121.27 620.979L134.807 624.956L148.117 621.383L151.132 590.23V590.227Z" fill="white"/>
</g>
<path d="M393.764 48.2356H339.438C330.945 48.2356 324.062 54.7234 324.062 62.7266V113.928C324.062 121.931 330.945 128.419 339.438 128.419H393.764C402.256 128.419 409.14 121.931 409.14 113.928V62.7266C409.14 54.7234 402.256 48.2356 393.764 48.2356Z" fill="white" fill-opacity="0.1"/>
<path d="M393.764 47.7525H339.438C330.663 47.7525 323.549 54.4566 323.549 62.7266V113.928C323.549 122.198 330.663 128.902 339.438 128.902H393.764C402.54 128.902 409.653 122.198 409.653 113.928V62.7266C409.653 54.4567 402.54 47.7525 393.764 47.7525Z" stroke="white" stroke-opacity="0.2" stroke-width="0.937853"/>
<path d="M381.212 110.879C382.925 113.516 385.155 115.454 389.098 115.454C392.411 115.454 394.527 113.894 394.527 111.738C394.527 109.154 392.353 108.239 388.707 106.736L386.708 105.928C380.939 103.611 377.106 100.71 377.106 94.5745C377.106 88.9235 381.675 84.6219 388.815 84.6219C393.898 84.6219 397.552 86.2896 400.185 90.6551L393.96 94.4221C392.589 92.1054 391.11 91.1928 388.815 91.1928C386.473 91.1928 384.989 92.5927 384.989 94.4221C384.989 96.6821 386.474 97.5978 389.905 98.9977L391.903 99.8042C398.696 102.549 402.531 105.348 402.531 111.641C402.531 118.425 396.877 122.141 389.283 122.141C381.859 122.141 377.062 118.806 374.715 114.435L381.212 110.879ZM352.971 111.532C354.226 113.632 355.369 115.407 358.115 115.407C360.742 115.407 362.398 114.439 362.398 110.673V85.0525H370.393V110.775C370.393 118.576 365.54 122.127 358.455 122.127C352.055 122.127 348.347 119.005 346.462 115.245L352.971 111.532Z" fill="white"/>
<path d="M214.111 6.43848H160.809C151.752 6.43848 144.409 13.3588 144.409 21.8954V72.1307C144.409 80.6673 151.752 87.5876 160.809 87.5876H214.111C223.169 87.5876 230.512 80.6673 230.512 72.1307V21.8954C230.512 13.3588 223.169 6.43848 214.111 6.43848Z" fill="white" fill-opacity="0.1"/>
<path d="M214.111 5.95547H160.809C151.468 5.95547 143.896 13.0921 143.896 21.8955V72.1307C143.896 80.9341 151.468 88.0707 160.809 88.0707H214.111C223.452 88.0707 231.024 80.9341 231.024 72.1307V21.8955C231.024 13.0921 223.452 5.95547 214.111 5.95547Z" stroke="white" stroke-opacity="0.2" stroke-width="0.937853"/>
<path d="M187.267 58.1827C205.38 58.4607 220.15 53.6868 220.256 47.5199C220.363 41.3531 205.765 36.1284 187.653 35.8504C169.539 35.5724 154.77 40.3463 154.663 46.5131C154.557 52.6801 169.153 57.9047 187.267 58.1827Z" stroke="white" stroke-width="2.73905"/>
<path d="M176.518 52.4295C185.332 66.5561 197.377 75.5828 203.42 72.5912C209.462 69.5997 207.215 55.7228 198.4 41.5963C189.585 27.4698 177.541 18.4431 171.498 21.4347C165.456 24.4261 167.703 38.303 176.518 52.4295Z" stroke="white" stroke-width="2.73905"/>
<path d="M176.712 41.2632C167.414 55.1117 164.689 68.9123 170.625 72.0877C176.56 75.263 188.911 66.6108 198.209 52.7623C207.506 38.9137 210.232 25.1132 204.296 21.9378C198.361 18.7624 186.01 27.4148 176.712 41.2632Z" stroke="white" stroke-width="2.73905"/>
<path fill-rule="evenodd" clip-rule="evenodd" d="M199.856 47.2794C199.008 45.6435 198.062 43.9829 197.022 42.3158C195.982 40.6502 194.899 39.0596 193.789 37.5553C191.777 37.3898 189.692 37.287 187.553 37.2541C185.416 37.2213 183.328 37.2602 181.311 37.3638C180.149 38.8332 179.012 40.3896 177.916 42.0225C176.818 43.6567 175.816 45.2875 174.911 46.8965C175.759 48.5322 176.705 50.1926 177.745 51.8594C178.786 53.5276 179.871 55.1206 180.984 56.627C182.995 56.7923 185.078 56.895 187.213 56.9278C189.35 56.9606 191.436 56.9219 193.451 56.8184C194.615 55.3469 195.755 53.7881 196.852 52.1526C197.95 50.5186 198.952 48.8882 199.856 47.2794Z" fill="white" fill-opacity="0.2"/>
<path d="M187.392 52.4638C190.768 52.5156 193.546 50.1175 193.599 47.1074C193.65 44.0974 190.956 41.6154 187.581 41.5635C184.205 41.5117 181.426 43.9098 181.374 46.9198C181.322 49.9298 184.017 52.412 187.392 52.4638Z" fill="white"/>
<path d="M526.329 323.716L470.981 323.118C462.489 323.026 455.527 329.439 455.43 337.442L454.796 389.606C454.699 397.609 461.503 404.17 469.994 404.262L525.343 404.859C533.834 404.951 540.796 398.538 540.893 390.535L541.527 338.371C541.625 330.369 534.82 323.807 526.329 323.716Z" fill="white" fill-opacity="0.1"/>
<path d="M526.334 323.233L470.986 322.635C462.212 322.541 455.017 329.167 454.917 337.437L454.283 389.601C454.182 397.87 461.214 404.65 469.988 404.745L525.336 405.343C534.11 405.437 541.305 398.811 541.405 390.541L542.039 338.377C542.14 330.108 535.108 323.328 526.334 323.233Z" stroke="white" stroke-opacity="0.2" stroke-width="0.937853"/>
<path d="M301.889 150.993H246.537C238.045 150.993 231.161 157.481 231.161 165.484V217.651C231.161 225.654 238.045 232.142 246.537 232.142H301.889C310.38 232.142 317.264 225.654 317.264 217.651V165.484C317.264 157.481 310.38 150.993 301.889 150.993Z" fill="white" fill-opacity="0.1"/>
<path d="M301.889 150.51H246.537C237.762 150.51 230.649 157.214 230.649 165.484V217.651C230.649 225.921 237.762 232.625 246.537 232.625H301.889C310.663 232.625 317.777 225.921 317.777 217.651V165.484C317.777 157.214 310.663 150.51 301.889 150.51Z" stroke="white" stroke-opacity="0.2" stroke-width="0.937853"/>
<path d="M466.06 203.316H410.708C402.216 203.316 395.333 209.804 395.333 217.807V269.974C395.333 277.977 402.216 284.465 410.708 284.465H466.06C474.552 284.465 481.436 277.977 481.436 269.974V217.807C481.436 209.804 474.552 203.316 466.06 203.316Z" fill="white" fill-opacity="0.1"/>
<path d="M466.06 202.833H410.708C401.933 202.833 394.82 209.537 394.82 217.807V269.974C394.82 278.244 401.933 284.948 410.708 284.948H466.06C474.835 284.948 481.948 278.244 481.948 269.974V217.807C481.948 209.537 474.835 202.833 466.06 202.833Z" stroke="white" stroke-opacity="0.2" stroke-width="0.937853"/>
<path d="M354.057 293.004H285.596C281.008 293.004 277.288 296.51 277.288 300.834V365.356C277.288 369.682 281.008 373.187 285.596 373.187H354.057C358.646 373.187 362.366 369.682 362.366 365.356V300.834C362.366 296.51 358.646 293.004 354.057 293.004Z" fill="white" fill-opacity="0.1"/>
<path d="M354.057 292.52H285.596C280.725 292.52 276.775 296.243 276.775 300.834V365.356C276.775 369.948 280.725 373.67 285.596 373.67H354.057C358.929 373.67 362.878 369.948 362.878 365.356V300.834C362.878 296.243 358.929 292.52 354.057 292.52Z" stroke="white" stroke-opacity="0.2" stroke-width="0.937853"/>
<path fill-rule="evenodd" clip-rule="evenodd" d="M329.642 356.856V364.687C330.988 365.345 332.633 365.83 334.461 366.159C336.289 366.487 338.282 366.644 340.277 366.644C342.271 366.644 344.099 366.472 345.926 366.112C347.754 365.752 349.25 365.156 350.579 364.389C351.925 363.559 353.072 362.51 353.737 361.1C354.401 359.691 354.916 358.125 354.916 356.089C354.916 354.664 354.683 353.427 354.235 352.33C353.786 351.234 353.138 350.294 352.24 349.512C351.393 348.681 350.413 347.945 349.25 347.319C348.086 346.692 346.757 346.035 345.262 345.44C344.165 345.016 343.267 344.609 342.271 344.203C341.407 343.796 340.659 343.388 340.111 342.981C339.495 342.558 339.031 342.12 338.699 341.665C338.365 341.196 338.199 340.679 338.199 340.1C338.199 339.567 338.348 339.081 338.648 338.643C338.949 338.204 339.363 337.844 339.894 337.531C340.427 337.218 341.091 336.983 341.889 336.811C342.669 336.639 343.534 336.56 344.547 336.56C345.246 336.56 345.977 336.609 346.708 336.707C347.472 336.806 348.253 336.958 349.034 337.161C349.815 337.365 350.579 337.615 351.361 337.928C352.092 338.241 352.773 338.602 353.354 339.009V331.649C352.092 331.195 350.695 330.85 349.2 330.631C347.705 330.412 346.042 330.302 344.049 330.302C342.055 330.302 340.227 330.506 338.399 330.897C336.571 331.288 335.076 331.915 333.747 332.776C332.4 333.622 331.42 334.656 330.589 336.065C329.809 337.38 329.426 338.884 329.426 340.763C329.426 343.113 330.141 345.148 331.586 346.714C333.015 348.437 335.242 349.69 338.067 350.942C339.213 351.381 340.227 351.82 341.223 352.242C342.221 352.666 343.052 353.104 343.716 353.558C344.431 354.012 344.996 354.514 345.378 355.046C345.793 355.579 346.01 356.205 346.01 356.925C346.01 357.427 345.879 357.896 345.627 358.334C345.374 358.773 344.979 359.149 344.448 359.462C343.915 359.775 343.267 360.026 342.454 360.214C341.673 360.386 340.792 360.48 339.629 360.48C337.801 360.48 335.973 360.182 334.312 359.588C332.483 358.992 330.822 358.099 329.327 356.925L329.642 356.856ZM315.684 337.594H326.319V331.173H296.575V337.594H307.209V366.252H315.684V337.594Z" fill="white"/>
<path d="M380.817 434.049H325.465C316.973 434.049 310.089 440.537 310.089 448.54V500.707C310.089 508.711 316.973 515.198 325.465 515.198H380.817C389.309 515.198 396.192 508.711 396.192 500.707V448.54C396.192 440.537 389.309 434.049 380.817 434.049Z" fill="white" fill-opacity="0.1"/>
<path d="M380.817 433.566H325.465C316.69 433.566 309.577 440.27 309.577 448.54V500.707C309.577 508.977 316.69 515.681 325.465 515.681H380.817C389.591 515.681 396.705 508.977 396.705 500.707V448.54C396.705 440.27 389.591 433.566 380.817 433.566Z" stroke="white" stroke-opacity="0.2" stroke-width="0.937853"/>
<mask id="mask2_1_72" style="mask-type:luminance" maskUnits="userSpaceOnUse" x="323" y="446" width="61" height="57">
<path d="M383.034 446.607H323.414V502.797H383.034V446.607Z" fill="white"/>
</mask>
<g mask="url(#mask2_1_72)">
<path d="M353.224 447.302C336.755 447.302 323.414 459.887 323.414 475.397C323.414 487.817 331.955 498.343 343.791 502.058C345.287 502.323 345.828 501.453 345.828 500.702C345.828 500.035 345.811 498.27 345.8 495.928C337.503 497.62 335.755 492.151 335.755 492.151C334.397 488.912 332.437 488.044 332.437 488.044C329.74 486.307 332.651 486.344 332.651 486.344C335.64 486.535 337.212 489.232 337.212 489.232C339.871 493.531 344.188 492.288 345.897 491.565C346.157 489.754 346.934 488.508 347.78 487.815C341.162 487.11 334.203 484.697 334.203 473.931C334.203 470.856 335.359 468.353 337.268 466.385C336.939 465.682 335.929 462.819 337.531 458.949C337.531 458.949 340.026 458.199 345.729 461.83C348.116 461.207 350.649 460.897 353.181 460.881C355.715 460.897 358.247 461.209 360.633 461.83C366.304 458.199 368.797 458.949 368.797 458.949C370.397 462.819 369.387 465.68 369.096 466.385C370.987 468.353 372.142 470.858 372.142 473.931C372.142 484.721 365.175 487.1 358.549 487.787C359.585 488.628 360.556 490.357 360.556 492.983C360.556 496.741 360.519 499.768 360.519 500.683C360.519 501.413 361.04 502.291 362.575 502.008C374.5 498.333 383.03 487.798 383.03 475.395C383.03 459.885 369.688 447.3 353.221 447.3L353.224 447.302Z" fill="white"/>
</g>
<path d="M213.735 408.932H158.383C149.891 408.932 143.008 415.419 143.008 423.423V475.59C143.008 483.593 149.891 490.081 158.383 490.081H213.735C222.227 490.081 229.111 483.593 229.111 475.59V423.423C229.111 415.419 222.227 408.932 213.735 408.932Z" fill="white" fill-opacity="0.1"/>
<path d="M213.735 408.449H158.383C149.608 408.449 142.495 415.153 142.495 423.422V475.59C142.495 483.86 149.608 490.564 158.383 490.564H213.735C222.51 490.564 229.623 483.86 229.623 475.59V423.422C229.623 415.153 222.51 408.449 213.735 408.449Z" stroke="white" stroke-opacity="0.2" stroke-width="0.937853"/>
<path d="M186.06 241.803H130.708C122.217 241.803 115.333 248.29 115.333 256.293V308.461C115.333 316.464 122.217 322.952 130.708 322.952H186.06C194.552 322.952 201.436 316.464 201.436 308.461V256.293C201.436 248.29 194.552 241.803 186.06 241.803Z" fill="white" fill-opacity="0.1"/>
<path d="M186.06 241.319H130.708C121.934 241.319 114.82 248.024 114.82 256.293V308.461C114.82 316.731 121.934 323.435 130.708 323.435H186.06C194.835 323.435 201.948 316.731 201.948 308.461V256.293C201.948 248.024 194.835 241.319 186.06 241.319Z" stroke="white" stroke-opacity="0.2" stroke-width="0.937853"/>
<path d="M424.894 556.739H369.542C361.05 556.739 354.166 563.226 354.166 571.23V623.397C354.166 631.4 361.05 637.888 369.542 637.888H424.894C433.385 637.888 440.269 631.4 440.269 623.397V571.23C440.269 563.226 433.385 556.739 424.894 556.739Z" fill="white" fill-opacity="0.1"/>
<path d="M424.894 556.257H369.542C360.767 556.257 353.654 562.961 353.654 571.23V623.398C353.654 631.668 360.767 638.372 369.542 638.372H424.894C433.668 638.372 440.782 631.668 440.782 623.398V571.23C440.782 562.961 433.668 556.257 424.894 556.257Z" stroke="white" stroke-opacity="0.2" stroke-width="0.937853"/>
<path d="M368.522 565.434C367.903 565.434 367.44 565.909 367.496 566.491L372.723 621.753C372.778 622.335 373.312 622.94 373.909 623.096L396.092 628.901C396.69 629.057 397.667 629.057 398.265 628.901L420.515 623.087C421.113 622.93 421.648 622.327 421.702 621.745L426.939 566.491C426.994 565.909 426.531 565.434 425.911 565.434H368.522ZM415.806 578.108C415.757 578.627 415.671 579.528 415.616 580.11L415.478 581.559C415.423 582.141 415.344 582.974 415.302 583.409C415.26 583.844 415.221 584.2 415.215 584.2C415.207 584.2 414.694 584.2 414.074 584.2H398.345C397.724 584.2 397.211 584.2 397.205 584.2C397.198 584.2 396.686 584.2 396.065 584.2H387.781C387.162 584.2 386.699 584.676 386.754 585.258L387.237 590.349C387.293 590.931 387.845 591.407 388.466 591.407H396.066C396.686 591.407 397.198 591.407 397.205 591.407C397.212 591.407 397.725 591.407 398.345 591.407H411.409C412.029 591.407 412.988 591.407 413.541 591.407C414.093 591.407 414.504 591.832 414.455 592.352C414.405 592.871 414.318 593.772 414.264 594.354L412.71 610.765C412.654 611.347 412.584 612.091 412.553 612.417C412.523 612.744 412.009 613.139 411.411 613.295L398.303 616.721C397.706 616.877 397.209 617.006 397.2 617.007C397.191 617.01 396.694 616.884 396.097 616.727L382.976 613.296C382.378 613.14 381.844 612.535 381.789 611.953L380.944 603.018C380.889 602.436 381.351 601.96 381.972 601.96H383.169C383.79 601.96 384.804 601.96 385.424 601.96H387.21C387.829 601.96 388.382 602.436 388.437 603.018L388.768 606.516C388.824 607.098 389.358 607.699 389.957 607.851L396.095 609.414C396.693 609.566 397.185 609.691 397.188 609.691C397.191 609.691 397.682 609.565 398.281 609.413L404.43 607.847C405.028 607.695 405.564 607.094 405.62 606.512L406.286 599.504C406.341 598.922 405.88 598.446 405.259 598.446H398.345C397.725 598.446 397.212 598.446 397.205 598.446C397.198 598.446 396.686 598.446 396.066 598.446H381.638C381.017 598.446 380.465 597.97 380.41 597.388L378.774 580.11C378.718 579.528 378.633 578.627 378.584 578.108C378.535 577.588 379.003 577.163 379.622 577.163H396.066C396.686 577.163 397.198 577.163 397.205 577.163C397.212 577.163 397.725 577.163 398.345 577.163H414.768C415.388 577.163 415.855 577.588 415.806 578.108Z" fill="white"/>
<g filter="url(#filter0_i_1_72)">
<path d="M177.131 440.407C176.38 439.18 176.043 437.748 176.617 436.447C177.191 435.117 178.477 434.05 179.764 433.056C183.344 430.41 187.757 428.467 191.259 425.778C193.198 424.301 194.8 422.533 195.354 420.501C195.81 419.011 195.592 417.476 195.177 416C197.037 417.564 197.65 419.8 197.116 421.817C196.542 424.082 194.84 426.084 192.842 427.809C191.239 429.198 189.399 430.425 187.48 431.565C185.244 432.895 183.048 434.327 181.643 436.198C180.455 437.718 180.178 439.589 180.99 441.24C182.316 444.075 185.402 446.18 187.084 448.855C185.224 447.641 183.404 446.385 181.702 445.055C179.922 443.652 178.24 442.161 177.131 440.407ZM187.222 438.186C186.886 440.51 188.528 442.702 190.487 444.426C191.437 445.201 192.248 446.151 192.287 447.233C192.327 448.679 191.22 450.024 189.794 450.974C190.131 450.945 190.368 450.725 190.645 450.608C192.782 449.6 194.84 448.328 195.888 446.59C196.581 445.406 196.423 444.002 195.513 442.906C194.444 441.62 193.039 440.48 192.209 439.077C191.753 438.288 191.595 437.367 191.971 436.534C192.466 435.409 193.534 434.488 194.662 433.684C197.768 431.507 201.527 429.957 205.129 428.262C200.578 429.227 196.086 430.557 192.248 432.647C189.814 433.991 187.559 435.862 187.222 438.186ZM208.849 449.176C211.006 449.264 213.122 450.433 213.518 452.041C213.895 453.429 212.985 454.803 211.817 455.855C209.897 457.55 207.305 458.764 204.694 459.801C204.436 459.918 204.219 460.064 204.021 460.225C207.464 459.582 210.906 458.618 213.696 456.966C215.239 456.016 216.605 454.759 216.902 453.253C217.179 451.953 216.447 450.608 215.141 449.746C213.558 448.679 211.322 448.285 209.225 448.489C208.018 448.606 206.692 448.796 205.861 449.541C206.851 449.396 207.82 449.103 208.849 449.176ZM165.893 453.356C168.485 453.867 171.156 454.014 173.807 454.145C176.182 454.262 178.556 454.292 180.951 454.277C187.124 454.204 193.336 453.897 199.391 452.903C199.964 452.801 200.598 452.728 201.113 452.465C202.122 451.982 203.229 451.602 204.318 451.222C199.391 451.807 194.444 452.304 189.458 452.538C184.413 452.772 179.327 452.918 174.263 452.669C172.818 452.567 171.334 452.508 169.989 452.099C169.672 451.997 169.236 451.793 169.395 451.485C169.692 451.091 170.285 450.901 170.8 450.696C172.976 449.936 175.351 449.513 177.666 449.016C173.688 448.972 169.731 449.717 166.091 450.872C165.279 451.164 164.369 451.398 163.717 451.895C163.459 452.099 163.459 452.45 163.756 452.625C164.35 453.02 165.141 453.195 165.893 453.356ZM197.947 457.375C194.484 457.828 191.001 458.253 187.499 458.384C183.66 458.574 179.822 458.413 176.023 458.121C175.291 458.047 174.559 457.96 173.906 457.712C173.57 457.565 173.234 457.332 173.254 457.024C173.293 456.542 173.847 456.206 174.243 455.855C173.016 456.177 171.789 456.513 170.761 457.113C170.325 457.361 169.89 457.755 170.008 458.194C170.187 458.705 170.86 459.012 171.453 459.246C172.917 459.802 174.559 460.05 176.162 460.269C180.218 460.752 184.353 460.766 188.429 460.561C192.743 460.313 197.037 459.787 201.211 458.881C200.024 458.486 198.896 458.033 197.947 457.375ZM176.201 462.432C175.094 462.666 173.966 462.944 173.056 463.484C172.6 463.747 172.244 464.201 172.462 464.625C172.739 465.165 173.432 465.487 174.084 465.764C175.786 466.452 177.705 466.773 179.585 467.021C183.839 467.518 188.212 467.445 192.446 466.89C194.959 466.539 197.472 466.042 199.806 465.268C198.283 464.8 196.799 464.274 195.375 463.66C192.901 463.982 190.408 464.318 187.875 464.435C184.532 464.625 181.148 464.42 177.804 464.113C177.012 463.982 176.023 463.923 175.489 463.412C175.213 462.987 175.845 462.68 176.201 462.432ZM203.269 471.829C206.039 471.406 208.829 470.923 211.362 469.974C212.153 469.637 213.122 469.272 213.38 468.57C213.518 467.898 212.569 467.547 211.896 467.269C212.311 467.621 212.588 468.132 212.172 468.541C211.48 469.228 210.293 469.491 209.244 469.754C205.96 470.441 202.557 470.719 199.173 470.997C190.21 471.596 181.187 471.742 172.225 471.187C169.217 470.953 166.15 470.704 163.281 469.915C162.826 469.769 162.134 469.623 162.134 469.169C162.311 468.776 162.826 468.556 163.281 468.366C165.339 467.591 167.634 467.167 169.929 467.065C169.257 466.773 168.465 466.744 167.694 466.758C165.774 466.802 163.894 467.167 162.074 467.621C160.511 468.044 158.909 468.512 157.662 469.36C157.167 469.681 156.713 470.295 157.226 470.734C158.018 471.362 159.245 471.523 160.332 471.713C166.427 472.487 172.6 472.925 178.774 473.086C186.965 473.262 195.216 472.999 203.269 471.829ZM211.381 472.619C207.661 473.496 203.803 473.978 199.964 474.373C193.336 474.986 186.648 475.176 179.98 475.031C175.924 474.914 171.868 474.709 167.871 474.212C168.801 474.68 169.949 474.825 171.018 475.045C175.51 475.747 180.119 475.878 184.69 475.98C191.397 476.068 198.104 475.878 204.713 475.103C207.84 474.695 210.986 474.198 213.795 473.116C215.26 472.546 216.744 471.669 217 470.397C215.517 471.566 213.38 472.107 211.381 472.619Z" fill="white" fill-opacity="0.7"/>
</g>
</g>
<path fill-rule="evenodd" clip-rule="evenodd" d="M438.5 228.856C430.388 228.856 425.32 232.776 423.292 240.619C426.333 236.699 429.883 235.229 433.937 236.208C436.252 236.767 437.907 238.391 439.735 240.187C442.719 243.113 446.171 246.5 453.708 246.5C461.82 246.5 466.888 242.58 468.917 234.738C465.875 238.657 462.328 240.128 458.271 239.149C455.956 238.589 454.301 236.965 452.47 235.17C449.49 232.241 446.04 228.856 438.5 228.856ZM423.292 246.5C415.18 246.5 410.112 250.42 408.083 258.262C411.125 254.34 414.675 252.872 418.729 253.851C421.044 254.411 422.699 256.035 424.53 257.83C427.51 260.756 430.963 264.144 438.503 264.144C446.615 264.144 451.683 260.224 453.711 252.381C450.67 256.301 447.12 257.771 443.066 256.792C440.751 256.233 439.096 254.609 437.268 252.813C434.281 249.887 430.829 246.5 423.292 246.5Z" fill="white"/>
<g clip-path="url(#clip0_1_72)">
<path d="M159 253.473C158.205 253.473 157.422 253.676 156.725 254.065L135.025 266.785C134.333 267.197 133.76 267.785 133.361 268.491C132.962 269.196 132.751 269.995 132.75 270.809V296.191C132.751 297.005 132.962 297.804 133.361 298.509C133.76 299.215 134.333 299.803 135.025 300.215L140.858 303.528C142.361 304.453 144.088 304.934 145.846 304.918C146.74 304.987 147.639 304.853 148.476 304.526C149.313 304.199 150.067 303.687 150.685 303.026C151.302 302.366 151.767 301.575 152.045 300.71C152.323 299.845 152.407 298.928 152.292 298.025V272.968C152.292 272.883 152.275 272.798 152.243 272.719C152.211 272.64 152.163 272.569 152.104 272.508C152.044 272.448 151.973 272.4 151.896 272.367C151.818 272.334 151.734 272.318 151.65 272.318H148.792C148.705 272.314 148.618 272.327 148.537 272.358C148.456 272.389 148.382 272.437 148.319 272.497C148.256 272.558 148.206 272.631 148.172 272.712C148.138 272.793 148.121 272.88 148.121 272.968V298.025C148.121 299.978 146.138 301.901 142.958 300.274L137.125 296.812C137.027 296.742 136.946 296.649 136.891 296.541C136.835 296.433 136.805 296.313 136.804 296.191V270.809C136.8 270.686 136.827 270.564 136.884 270.455C136.94 270.346 137.023 270.254 137.125 270.188L158.825 257.496C158.923 257.439 159.033 257.409 159.146 257.409C159.258 257.409 159.369 257.439 159.467 257.496L181.021 270.188C181.123 270.254 181.206 270.346 181.262 270.455C181.318 270.564 181.346 270.686 181.342 270.809V296.191C181.341 296.313 181.311 296.433 181.255 296.541C181.199 296.649 181.119 296.742 181.021 296.812L159.321 309.504C159.218 309.561 159.103 309.591 158.985 309.591C158.868 309.591 158.753 309.561 158.65 309.504L153.167 306.131C153.07 306.088 152.966 306.066 152.86 306.066C152.755 306.066 152.651 306.088 152.554 306.131C151.544 306.793 150.443 307.302 149.288 307.64C148.938 307.64 148.383 307.965 149.492 308.587L156.725 312.935C157.416 313.343 158.201 313.558 159 313.558C159.799 313.558 160.584 313.343 161.275 312.935L182.975 300.244C183.671 299.83 184.247 299.237 184.646 298.526C185.046 297.815 185.254 297.01 185.25 296.191V270.809C185.249 269.995 185.038 269.196 184.639 268.491C184.24 267.785 183.667 267.197 182.975 266.785L161.275 254.065C160.579 253.673 159.796 253.469 159 253.473ZM164.833 271.667C158.65 271.667 154.946 274.3 154.946 278.737C154.946 283.175 158.621 284.89 164.571 285.482C171.658 286.192 172.213 287.257 172.213 288.677C172.213 291.132 170.258 292.168 165.708 292.168C159.875 292.168 158.708 290.718 158.271 287.819C158.238 287.67 158.157 287.537 158.041 287.44C157.924 287.344 157.779 287.29 157.629 287.287H154.712C154.63 287.287 154.547 287.304 154.471 287.337C154.395 287.37 154.326 287.418 154.269 287.479C154.211 287.54 154.167 287.612 154.138 287.691C154.109 287.769 154.096 287.853 154.1 287.937C154.1 291.606 156.083 296.043 165.592 296.043C172.446 296.043 176.383 293.292 176.383 288.5C176.383 283.707 173.233 282.583 166.554 281.577C159.875 280.571 159.146 280.216 159.146 278.619C159.146 277.021 159.729 275.66 164.717 275.66C169.092 275.66 170.813 276.637 171.483 279.684C171.511 279.827 171.587 279.956 171.699 280.048C171.811 280.14 171.952 280.189 172.096 280.187H175.013C175.096 280.188 175.179 280.17 175.255 280.134C175.33 280.098 175.397 280.045 175.45 279.98C175.515 279.922 175.563 279.847 175.589 279.764C175.615 279.68 175.617 279.591 175.596 279.506C175.217 274.093 171.775 271.667 164.833 271.667Z" fill="white"/>
</g>
<g filter="url(#filter1_i_1_72)">
<path d="M523.452 364.572C523.45 363.061 522.92 361.598 521.956 360.435C520.991 359.272 519.651 358.481 518.166 358.2L525.354 337H491.378L498.578 358.242C497.32 358.522 496.175 359.17 495.287 360.104C494.4 361.038 493.811 362.215 493.595 363.486C493.379 364.756 493.547 366.061 494.076 367.236C494.606 368.41 495.473 369.401 496.568 370.08C495.664 371.424 494.612 372.662 493.432 373.772C491.606 375.519 489.46 376.897 487.112 377.832C486.01 377.192 485.175 376.177 484.758 374.973C484.342 373.768 484.372 372.454 484.844 371.27L484.924 371.084L485.072 370.734C486.404 370.272 487.55 369.388 488.335 368.217C489.12 367.045 489.502 365.65 489.423 364.242C489.345 362.834 488.809 361.489 487.898 360.413C486.987 359.337 485.75 358.586 484.374 358.276C482.999 357.965 481.559 358.111 480.274 358.692C478.989 359.273 477.928 360.256 477.252 361.494C476.576 362.731 476.321 364.156 476.527 365.551C476.733 366.946 477.387 368.236 478.392 369.226C478.176 369.688 477.948 370.156 477.714 370.638C476.418 373.022 475.475 375.583 474.914 378.238C473.984 383.838 475.484 388.324 479.136 390.854C481.099 392.258 483.454 393.009 485.868 393C490.132 393 494.446 390.858 498.668 388.762C501.618 387.158 504.73 385.873 507.952 384.928C509.141 384.655 510.342 384.442 511.552 384.29C514.114 384.085 516.613 383.387 518.91 382.234C520.206 381.494 521.324 380.478 522.183 379.258C523.043 378.038 523.623 376.644 523.884 375.174C524.31 372.678 523.819 370.112 522.504 367.948C523.126 366.932 523.453 365.763 523.452 364.572ZM520.906 364.572C520.906 365.351 520.675 366.113 520.242 366.761C519.809 367.409 519.194 367.914 518.474 368.212C517.754 368.51 516.962 368.588 516.197 368.436C515.433 368.284 514.731 367.909 514.18 367.358C513.629 366.807 513.254 366.105 513.102 365.341C512.95 364.576 513.028 363.784 513.326 363.064C513.624 362.344 514.129 361.729 514.777 361.296C515.425 360.863 516.187 360.632 516.966 360.632C518.01 360.634 519.012 361.049 519.75 361.788C520.489 362.526 520.904 363.528 520.906 364.572ZM521.8 339.546L515.452 358.266C515.18 358.332 514.913 358.416 514.652 358.516L508.382 345.716L502.092 358.44C501.818 358.346 501.538 358.269 501.254 358.212L494.928 339.546H521.8ZM499.986 360.632C500.765 360.632 501.527 360.863 502.175 361.296C502.823 361.729 503.328 362.344 503.626 363.064C503.924 363.784 504.002 364.576 503.85 365.341C503.698 366.105 503.323 366.807 502.772 367.358C502.221 367.909 501.519 368.284 500.755 368.436C499.99 368.588 499.198 368.51 498.478 368.212C497.758 367.914 497.143 367.409 496.71 366.761C496.277 366.113 496.046 365.351 496.046 364.572C496.047 363.527 496.463 362.526 497.201 361.787C497.94 361.049 498.941 360.633 499.986 360.632ZM482.94 360.67C483.719 360.67 484.481 360.901 485.129 361.334C485.777 361.767 486.282 362.382 486.58 363.102C486.878 363.822 486.956 364.614 486.804 365.379C486.652 366.143 486.277 366.845 485.726 367.396C485.175 367.947 484.473 368.322 483.709 368.474C482.944 368.626 482.152 368.548 481.432 368.25C480.712 367.952 480.097 367.447 479.664 366.799C479.231 366.151 479 365.389 479 364.61C479.001 363.566 479.416 362.564 480.154 361.826C480.893 361.087 481.896 360.672 482.94 360.67ZM521.374 374.738C521.177 375.841 520.739 376.886 520.092 377.801C519.446 378.715 518.606 379.476 517.632 380.03C515.613 381.012 513.425 381.603 511.186 381.77C509.922 381.952 508.616 382.14 507.338 382.456C503.936 383.441 500.65 384.791 497.538 386.482C491.21 389.624 485.738 392.338 480.594 388.768C476.82 386.152 476.994 381.312 477.434 378.66C477.951 376.245 478.815 373.919 480 371.752C480.184 371.372 480.364 371.002 480.54 370.634C481.077 370.848 481.641 370.989 482.216 371.054C481.706 372.852 481.848 374.772 482.616 376.476C483.385 378.179 484.731 379.556 486.416 380.364L486.906 380.616L487.424 380.43C490.314 379.388 492.955 377.753 495.176 375.63C496.643 374.249 497.931 372.69 499.012 370.99C500.394 371.2 501.807 370.958 503.041 370.299C504.274 369.64 505.261 368.601 505.855 367.335C506.449 366.069 506.617 364.645 506.336 363.276C506.054 361.906 505.337 360.665 504.292 359.736L508.368 351.494L512.486 359.894C511.314 361.023 510.61 362.552 510.514 364.176C510.418 365.801 510.936 367.402 511.966 368.662C512.996 369.921 514.462 370.747 516.073 370.976C517.684 371.204 519.323 370.818 520.662 369.894C521.405 371.392 521.654 373.088 521.372 374.736L521.374 374.738Z" fill="white" fill-opacity="0.6"/>
</g>
<g clip-path="url(#clip1_1_72)">
<mask id="mask3_1_72" style="mask-type:luminance" maskUnits="userSpaceOnUse" x="244" y="162" width="60" height="60">
<path d="M304 162H244V222H304V162Z" fill="white"/>
</mask>
<g mask="url(#mask3_1_72)">
<path d="M272.035 162.016C271.906 162.028 271.495 162.069 271.126 162.098C262.604 162.867 254.622 167.465 249.566 174.532C246.751 178.462 244.95 182.919 244.27 187.641C244.029 189.289 244 189.776 244 192.01C244 194.245 244.029 194.732 244.27 196.38C245.9 207.647 253.918 217.113 264.792 220.62C266.739 221.248 268.792 221.676 271.126 221.934C272.035 222.034 275.965 222.034 276.874 221.934C280.903 221.488 284.317 220.491 287.683 218.773C288.2 218.509 288.299 218.439 288.229 218.38C288.182 218.345 285.982 215.395 283.343 211.829L278.546 205.348L272.534 196.45C269.226 191.559 266.504 187.559 266.481 187.559C266.457 187.553 266.434 191.506 266.422 196.333C266.405 204.785 266.399 205.125 266.293 205.324C266.141 205.611 266.023 205.729 265.777 205.858C265.589 205.952 265.425 205.969 264.54 205.969H263.525L263.255 205.799C263.079 205.688 262.95 205.541 262.862 205.371L262.739 205.107L262.751 193.347L262.768 181.582L262.95 181.353C263.044 181.23 263.243 181.072 263.384 180.996C263.625 180.878 263.718 180.867 264.733 180.867C265.93 180.867 266.129 180.913 266.44 181.254C266.528 181.348 269.783 186.251 273.678 192.157C277.572 198.063 282.897 206.128 285.513 210.087L290.264 217.283L290.505 217.125C292.634 215.741 294.886 213.77 296.668 211.717C300.463 207.359 302.909 202.045 303.73 196.38C303.971 194.732 304 194.245 304 192.01C304 189.776 303.971 189.289 303.73 187.641C302.1 176.374 294.082 166.908 283.208 163.4C281.29 162.779 279.249 162.35 276.962 162.092C276.399 162.034 272.522 161.969 272.035 162.016ZM284.317 180.163C284.598 180.304 284.827 180.573 284.909 180.855C284.956 181.007 284.968 184.268 284.956 191.617L284.939 202.163L283.079 199.312L281.214 196.462V188.796C281.214 183.84 281.237 181.054 281.273 180.919C281.366 180.591 281.572 180.333 281.853 180.18C282.094 180.057 282.182 180.045 283.103 180.045C283.971 180.045 284.123 180.057 284.317 180.163Z" fill="white"/>
</g>
</g>
<path opacity="0.2" d="M697.459 493.147V322.939H697.999V321.06H697.459V150.853C697.449 109.111 681.205 69.0094 652.163 39.0278V35.9395H697.459V34.0478H653.475L695.709 -8.41721L694.422 -9.70403L652.201 32.761V-8.79039H650.323V34.0478H647.131C617.581 5.80031 578.283 -9.97511 537.404 -10H194.042C153.18 -9.96187 113.903 5.81251 84.3661 34.0478H81.162V-8.79039H79.2961V32.7224L37.0755 -9.74264L35.7887 -8.45582L78.0092 34.0092H36.6766V35.888H79.2961V39.0278C50.25 69.0071 34.0058 109.11 34 150.853V493.147C34.0058 534.889 50.25 574.992 79.2961 604.971V608.111H36.6766V609.99H77.9706L35.7501 652.455L37.0369 653.742L79.2575 611.277V652.79H81.1234V609.951H84.3275C113.874 638.196 153.167 653.971 194.042 653.999H537.404C578.27 653.964 617.552 638.19 647.093 609.951H650.284V652.79H652.163V611.277L694.383 653.742L695.67 652.455L653.437 609.99H697.999V608.111H652.163V604.971C681.198 574.985 697.441 534.887 697.459 493.147ZM695.58 493.147C695.577 533.724 680.041 572.76 652.163 602.243V440.966H694.911V439.1H652.163V322.939H695.58V493.147ZM483.525 439.1L482.238 437.813C484.374 435.643 486.446 433.412 488.453 431.122V439.1H483.525ZM488.453 440.979V444.055L485.391 440.979H488.453ZM244.073 439.1V432.344C245.746 434.21 247.471 436.025 249.221 437.813L247.934 439.1H244.073ZM246.068 440.979L244.073 442.961V440.966L246.068 440.979ZM247.934 204.899L249.221 206.186C247.471 207.974 245.746 209.802 244.073 211.655V204.899H247.934ZM244.073 203.02V201.039L246.068 203.033L244.073 203.02ZM488.453 204.899V212.877C486.446 210.587 484.374 208.356 482.238 206.186L483.525 204.899H488.453ZM485.391 203.02L488.453 199.945V203.02H485.391ZM488.453 321.047H484.052C483.857 290.174 471.666 260.586 450.055 238.536L480.938 207.524C483.512 210.158 486.026 212.89 488.479 215.721L488.453 321.047ZM490.319 217.947C514.321 246.956 527.511 283.396 527.637 321.047H490.319V217.947ZM448.729 239.823C470.001 261.509 482 290.62 482.187 320.996H367.981L448.729 239.823ZM366.669 319.606V204.899C396.941 205.11 425.925 217.177 447.404 238.511L366.669 319.606ZM364.79 319.606L284.042 238.421C305.545 217.126 334.528 205.094 364.79 204.899V319.606ZM363.503 320.893H249.272C249.466 290.518 261.464 261.41 282.729 239.72L363.503 320.893ZM363.503 322.772L282.755 403.944C261.49 382.255 249.492 353.146 249.298 322.772H363.503ZM364.79 324.059V439.1C334.512 438.888 305.523 426.816 284.042 405.476L364.79 324.059ZM366.669 324.059L447.404 405.231C425.969 426.663 396.979 438.825 366.669 439.1V324.059ZM367.956 322.772H482.148C481.961 353.148 469.962 382.259 448.691 403.944L367.956 322.772ZM479.587 206.186L448.704 237.211C431.752 220.394 410.09 209.125 386.589 204.899H478.275L479.587 206.186ZM366.669 203.02V159.178C407.451 159.378 446.636 175.052 476.306 203.033L366.669 203.02ZM364.79 203.02H255.153C284.817 175.031 324.006 159.356 364.79 159.165V203.02ZM344.857 204.899C321.349 209.126 299.678 220.394 282.717 237.211L251.833 206.186L253.12 204.899H344.857ZM250.546 207.473L281.43 238.485C259.809 260.528 247.615 290.12 247.432 320.996H244.099V214.499C246.171 212.118 248.32 209.789 250.546 207.537V207.473ZM242.208 320.996H203.77C203.914 282.768 217.523 245.813 242.208 216.622V320.996ZM242.208 322.875V427.249C217.523 398.058 203.914 361.103 203.77 322.875H242.208ZM244.073 322.875H247.406C247.587 353.747 259.781 383.336 281.404 405.373L250.52 436.398C248.294 434.146 246.145 431.817 244.086 429.436L244.073 322.875ZM251.872 437.813L282.755 406.788C299.707 423.599 321.362 434.866 344.857 439.1H253.184L251.872 437.813ZM364.79 440.979V484.834C324.006 484.643 284.817 468.968 255.153 440.979H364.79ZM366.669 440.979H476.306C446.636 468.96 407.451 484.634 366.669 484.834V440.979ZM386.589 439.1C410.099 434.879 431.771 423.61 448.729 406.788L479.613 437.813L478.326 439.1H386.589ZM480.913 436.527L450.029 405.501C471.643 383.459 483.835 353.874 484.027 323.003H488.428V428.33C486.026 431.109 483.521 433.841 480.913 436.527ZM490.319 323.003H527.637C527.511 360.654 514.321 397.094 490.319 426.103V323.003ZM529.554 321.125C529.411 282.263 515.511 244.707 490.319 215.116V204.899H589.276C607.903 240.787 617.668 280.613 617.753 321.047L529.554 321.125ZM490.319 203.097V198.13L544.597 143.582C561.98 161.188 576.698 181.238 588.285 203.097H490.319ZM490.319 195.479V101.722C509.677 112.814 527.482 126.417 543.272 142.179L490.319 195.479ZM488.453 197.358L482.753 203.097H479.034C448.881 173.919 408.627 157.508 366.669 157.287V68.6504C409.332 68.7441 451.26 79.7666 488.453 100.667V197.358ZM364.79 157.287C322.842 157.485 282.589 173.868 252.425 203.02H248.706L244.073 198.362V100.049C281.008 79.537 322.542 68.7296 364.79 68.6376V157.287ZM242.208 196.496L188.161 142.179C204.252 126.129 222.431 112.317 242.208 101.117V196.496ZM242.208 199.16V203.02H143.122C154.705 181.158 169.424 161.107 186.81 143.505L242.208 199.16ZM242.208 204.912V213.791C216.35 243.562 202.043 281.628 201.891 321.06H113.706C113.789 280.622 123.554 240.791 142.183 204.899L242.208 204.912ZM201.891 322.939C202.043 362.371 216.35 400.438 242.208 430.208V439.1H142.183C123.556 403.212 113.791 363.386 113.706 322.952L201.891 322.939ZM242.208 440.966V444.827L186.874 500.456C169.488 482.853 154.77 462.803 143.187 440.94L242.208 440.966ZM242.208 447.503V542.882C222.431 531.682 204.252 517.87 188.161 501.82L242.208 447.503ZM244.073 445.624L248.706 440.966H252.425C282.587 470.123 322.84 486.511 364.79 486.713V575.375C322.542 575.272 281.009 564.46 244.073 543.95V445.624ZM366.669 486.713C408.617 486.512 448.869 470.129 479.034 440.979H482.753L488.453 446.718V543.333C451.259 564.231 409.332 575.257 366.669 575.362V486.713ZM490.319 448.597L543.272 501.833C527.476 517.588 509.672 531.191 490.319 542.29V448.597ZM490.319 445.946V440.979H588.285C576.698 462.839 561.98 482.889 544.597 500.494L490.319 445.946ZM490.319 439.1V428.96C515.511 399.369 529.411 361.814 529.554 322.952H617.753C617.668 363.386 607.903 403.212 589.276 439.1H490.319ZM619.619 322.952H650.284V439.1H591.386C609.862 403.162 619.539 363.349 619.619 322.939V322.952ZM619.619 321.073C619.541 280.659 609.864 240.842 591.386 204.899H650.284V321.047L619.619 321.073ZM590.395 203.046C578.651 180.681 563.664 160.175 545.923 142.192L649.1 38.5131L649.19 38.5903C649.576 38.9892 649.962 39.4139 650.348 39.8771V203.033L590.395 203.046ZM647.685 37.2134L544.597 140.854C528.435 124.722 510.179 110.833 490.319 99.56V35.9266H646.346L647.685 37.2134ZM488.453 98.518C451.202 77.7917 409.298 66.8641 366.669 66.7588V35.8751H488.453V98.518ZM366.669 34.0478V-8.12125H488.453V34.0478H366.669ZM364.79 34.0478H244.073V-8.12125H364.79V34.0478ZM364.79 35.9266V66.8103C322.576 66.9091 281.064 77.6223 244.073 97.964V35.9266H364.79ZM242.208 98.981C221.938 110.352 203.32 124.445 186.874 140.867L83.7871 37.2263L85.0739 35.9395H242.208V98.981ZM82.333 38.5903L82.4102 38.5131L185.536 142.179C167.787 160.158 152.796 180.665 141.051 203.033H81.162V39.8257C81.6124 39.4139 81.9341 38.9892 82.333 38.5903ZM140.073 204.899C121.599 240.834 111.922 280.642 111.84 321.047H81.162V204.899H140.073ZM111.84 322.926C111.918 363.34 121.595 403.158 140.073 439.1H81.162V322.939L111.84 322.926ZM141.051 440.953C152.796 463.321 167.787 483.828 185.536 501.807L82.4102 605.486L82.333 605.409C81.9341 605.01 81.5609 604.585 81.162 604.122V440.966L141.051 440.953ZM83.7742 606.786L186.861 503.145C203.311 519.568 221.927 533.664 242.195 545.044V608.098H85.1125L83.7742 606.786ZM244.073 546.087C281.064 566.428 322.576 577.142 364.79 577.24V608.124H244.073V546.087ZM364.79 609.951V652.12H244.073V609.951H364.79ZM366.669 609.951H488.453V652.12H366.669V609.951ZM366.669 608.073V577.189C409.298 577.084 451.202 566.156 488.453 545.43V608.021L366.669 608.073ZM490.319 544.439C510.179 533.166 528.435 519.278 544.597 503.145L647.685 606.786L646.398 608.073H490.319V544.439ZM649.1 605.409L649.01 605.486L545.897 501.82C563.639 483.837 578.625 463.331 590.37 440.966H650.258V604.174L649.1 605.409ZM695.58 150.853V321.06H652.163V204.899H694.911V203.02H652.163V41.7945C680.032 71.2681 695.567 110.289 695.58 150.853ZM644.39 34.0092H490.319V-8.12125H537.404C577.114 -8.09192 615.34 6.97491 644.39 34.0478V34.0092ZM194.003 -8.15985H242.208V34.0092H87.0685C116.121 6.95221 154.341 -8.10044 194.042 -8.12125L194.003 -8.15985ZM35.8659 493.147V150.853C35.8739 110.274 51.4138 71.2379 79.2961 41.7559V202.994H36.5736V204.899H79.2961V321.047H36.4192V322.926H79.2961V439.1H36.5736V440.979H79.2961V602.218C51.4199 572.742 35.8805 533.716 35.8659 493.147ZM87.0685 609.99H242.208V652.159H194.042C154.331 652.117 116.109 637.037 87.0685 609.951V609.99ZM537.456 652.159H490.319V609.951H644.39C615.338 637.022 577.114 652.089 537.404 652.12L537.456 652.159Z" fill="url(#paint1_radial_1_72)"/>
<defs>
<filter id="filter0_i_1_72" x="157" y="416" width="60" height="64" filterUnits="userSpaceOnUse" color-interpolation-filters="sRGB">
<feFlood flood-opacity="0" result="BackgroundImageFix"/>
<feBlend mode="normal" in="SourceGraphic" in2="BackgroundImageFix" result="shape"/>
<feColorMatrix in="SourceAlpha" type="matrix" values="0 0 0 0 0 0 0 0 0 0 0 0 0 0 0 0 0 0 127 0" result="hardAlpha"/>
<feOffset dy="4"/>
<feGaussianBlur stdDeviation="2"/>
<feComposite in2="hardAlpha" operator="arithmetic" k2="-1" k3="1"/>
<feColorMatrix type="matrix" values="0 0 0 0 0 0 0 0 0 0 0 0 0 0 0 0 0 0 0.25 0"/>
<feBlend mode="normal" in2="shape" result="effect1_innerShadow_1_72"/>
</filter>
<filter id="filter1_i_1_72" x="468" y="333" width="64" height="68" filterUnits="userSpaceOnUse" color-interpolation-filters="sRGB">
<feFlood flood-opacity="0" result="BackgroundImageFix"/>
<feBlend mode="normal" in="SourceGraphic" in2="BackgroundImageFix" result="shape"/>
<feColorMatrix in="SourceAlpha" type="matrix" values="0 0 0 0 0 0 0 0 0 0 0 0 0 0 0 0 0 0 127 0" result="hardAlpha"/>
<feOffset dy="4"/>
<feGaussianBlur stdDeviation="2"/>
<feComposite in2="hardAlpha" operator="arithmetic" k2="-1" k3="1"/>
<feColorMatrix type="matrix" values="0 0 0 0 0 0 0 0 0 0 0 0 0 0 0 0 0 0 0.25 0"/>
<feBlend mode="normal" in2="shape" result="effect1_innerShadow_1_72"/>
</filter>
<linearGradient id="paint0_linear_1_72" x1="156.334" y1="-104.047" x2="373.007" y2="707.42" gradientUnits="userSpaceOnUse">
<stop offset="0.416946"/>
<stop offset="0.880782" stop-opacity="0.02"/>
</linearGradient>
<radialGradient id="paint1_radial_1_72" cx="0" cy="0" r="1" gradientUnits="userSpaceOnUse" gradientTransform="translate(366 322) rotate(90) scale(349.759)">
<stop stop-color="white"/>
<stop offset="1" stop-color="white" stop-opacity="0"/>
</radialGradient>
<clipPath id="clip0_1_72">
<rect width="70" height="71" fill="white" transform="translate(124 248)"/>
</clipPath>
<clipPath id="clip1_1_72">
<rect width="60" height="60" fill="white" transform="translate(244 162)"/>
</clipPath>
</defs>
</svg>
